<?xml version="1.0" standalone="no"?>
<!DOCTYPE svg PUBLIC "-//W3C//DTD SVG 20010904//EN"
 "http://www.w3.org/TR/2001/REC-SVG-20010904/DTD/svg10.dtd">
<svg version="1.0" xmlns="http://www.w3.org/2000/svg"
 width="418.000000pt" height="418.000000pt" viewBox="0 0 418.000000 418.000000"
 preserveAspectRatio="xMidYMid meet">
<metadata>
Created by potrace 1.11, written by Peter Selinger 2001-2013
</metadata>
<g transform="translate(0.000000,418.000000) scale(0.100000,-0.100000)"
fill="#000000" stroke="none">
<path d="M1672 3034 c-65 -29 -120 -102 -182 -248 l-20 -49 -30 41 c-40 56
-71 74 -124 74 -69 0 -114 -19 -134 -55 -15 -29 -17 -74 -16 -507 2 -627 11
-934 30 -992 8 -27 57 -48 108 -48 83 0 90 34 111 523 8 189 18 217 79 217
105 0 181 -92 358 -440 116 -227 158 -294 266 -425 225 -274 474 -431 759
-481 346 -61 648 32 886 272 99 100 147 221 117 293 -17 42 -76 67 -127 55
-38 -10 -44 -33 -23 -94 25 -72 25 -105 -4 -165 -43 -92 -194 -205 -350 -262
-188 -69 -424 -63 -596 15 -213 96 -333 246 -546 677 -139 282 -172 341 -246
432 -63 77 -139 137 -227 180 l-66 32 33 11 c53 20 184 89 232 125 122 89 182
215 179 370 -2 100 -20 169 -64 254 -75 142 -181 212 -316 210 -30 0 -69 -7
-87 -15z m122 -95 c25 -29 58 -117 82 -217 8 -37 12 -100 10 -177 -4 -150 -25
-214 -96 -284 -53 -53 -179 -122 -255 -140 -27 -7 -59 -14 -69 -18 -18 -5 -19
-1 -12 83 4 49 8 100 10 114 14 93 19 120 28 160 5 25 12 55 14 66 27 141 96
339 136 390 51 65 110 74 152 23z"/>
</g>
</svg>
